# xmcd
#
# Track frame offsets:
#	150
#	14296
#	29795
#	46215
#	62201
#	80981
#	93766
#	111940
#	131899
#	143704
#
# Disc length: 2148 seconds
#
# Revision: 0
# Processed by: cddbd v1.4b42PL1 Copyright (c) Steve Scherf et al.
# Submitted via: dBpowerAMP V4.0
#
DISCID=8e08620a
DTITLE=Hales - A Small Portion Of The Big Picture
DYEAR=2001
DGENRE=Country
TTITLE0=With A Love Like That
TTITLE1=Right Back To You
TTITLE2=Operator Please
TTITLE3=Even Now And Then
TTITLE4=Just Another Night
TTITLE5=Haven't A Clue
TTITLE6=Feelin' Good
TTITLE7=They Never Told Me
TTITLE8=Red Wine
TTITLE9=Loosin' Game
EXTD=
EXTT0=
EXTT1=
EXTT2=
EXTT3=
EXTT4=
EXTT5=
EXTT6=
EXTT7=
EXTT8=
EXTT9=
PLAYORDER=
